<?xml version="1.0" encoding="utf-8"?>
<svg viewBox="-2 -2 24 24" fill="#000000" xmlns="http://www.w3.org/2000/svg">
  <path d="M13 18h3a2 2 0 0 0 2-2v-3a1 1 0 0 1 2 0v3a4 4 0 0 1-4 4H4a4 4 0 0 1-4-4v-3a1 1 0 0 1 2 0v3a2 2 0 0 0 2 2h3a1 1 0 0 1 0 2h6a1 1 0 0 1 0-2zM2 7a1 1 0 1 1-2 0V4a4 4 0 0 1 4-4h3a1 1 0 1 1 0 2H4a2 2 0 0 0-2 2v3zm16 0V4a2 2 0 0 0-2-2h-3a1 1 0 0 1 0-2h3a4 4 0 0 1 4 4v3a1 1 0 0 1-2 0z" style="stroke-linejoin: round; stroke-linecap: round; stroke-width: 0px; fill: rgb(52, 0, 83);" transform="matrix(1, 0, 0, 1, 0, -2.220446049250313e-16)"/>
  <g id="SVGRepo_iconCarrier" transform="matrix(0.826362967491, 0.0100080017, -0.0100080017, 0.826362967491, -0.468357927719, -22.870821369277)" style="transform-origin: 20.613px 19.035px;">
    <g transform="matrix(0.922224, 0, 0, 0.922224, 0.033945, 2.196543)" style="">
      <path fill="#C147E9" d="M 8.605 35.044 C 8.605 35.572 8.177 36 7.649 36 L 0.956 36 C 0.428 36 0 35.572 0 35.044 L 0 28.351 C 0 27.823 0.428 27.395 0.956 27.395 L 7.649 27.395 C 8.177 27.395 8.605 27.823 8.605 28.351 L 8.605 35.044 Z" style="transform-box: fill-box; transform-origin: 52.5462% 53.3107%;" transform="matrix(0.999927, -0.01211, 0.01211, 0.999927, 0, 0)"/>
      <path fill="#FFF" d="M 5.607 34.09 C 5.244 34.297 4.807 34.416 4.303 34.416 C 2.798 34.416 1.753 33.223 1.753 31.689 C 1.753 30.147 2.791 28.961 4.303 28.961 C 5.792 28.961 6.852 30.184 6.852 31.689 C 6.852 32.341 6.682 32.934 6.355 33.4 L 6.778 33.764 C 6.919 33.89 7.038 34.008 7.038 34.216 C 7.038 34.475 6.778 34.683 6.526 34.683 C 6.363 34.683 6.23 34.616 6.03 34.446 L 5.607 34.09 L 5.607 34.09 Z M 5.518 32.637 C 5.644 32.355 5.696 32.03 5.696 31.689 C 5.696 30.807 5.229 29.984 4.303 29.984 C 3.376 29.984 2.91 30.792 2.91 31.689 C 2.91 32.593 3.362 33.393 4.303 33.393 C 4.473 33.393 4.629 33.371 4.777 33.341 L 4.51 33.082 C 4.429 33.008 4.369 32.889 4.369 32.785 C 4.369 32.497 4.57 32.252 4.873 32.252 C 4.977 32.252 5.066 32.289 5.155 32.348 L 5.518 32.637 L 5.518 32.637 Z" style=""/>
    </g>
    <path fill="#C147E9" d="M 14.947 34.587 C 14.947 34.955 14.648 35.255 14.279 35.255 L 9.603 35.255 C 9.235 35.255 8.935 34.955 8.935 34.587 L 8.935 29.911 C 8.935 29.542 9.235 29.243 9.603 29.243 L 14.279 29.243 C 14.648 29.243 14.947 29.542 14.947 29.911 L 14.947 34.587 Z" style="transform-box: fill-box; transform-origin: 50% 50%;" transform="matrix(0.999927, -0.01211, 0.01211, 0.999927, 0, 0)"/>
  </g>
  <g id="g-1" stroke-width="0" transform="matrix(0.17158301174640653, 0, 0, 0.17158301174640653, 10.529797867828535, 10.651841481084858)" style=""/>
  <g id="g-2" stroke-linecap="round" stroke-linejoin="round" transform="matrix(0.17158301174640653, 0, 0, 0.17158301174640653, 10.529797867828535, 10.651841481084858)" style=""/>
  <g id="g-3" transform="matrix(0.1875319927930832, 0, 0, 0.1875319927930832, 10.68138249759025, 10.305852243478652)" style="">
    <g transform="matrix(1, 0, 0, 1, -2.19092, -1.022427)" style="transform-origin: 18px 18px;">
      <path fill="#810CA8" d="M36 32a4 4 0 0 1-4 4H4a4 4 0 0 1-4-4V4a4 4 0 0 1 4-4h28a4 4 0 0 1 4 4v28z"/>
      <path fill="#ffffff" d="M10.777 9.342c0-1.488.837-2.418 2.388-2.418h5.457c4.775 0 7.72 2.14 7.72 7.007c0 3.411-2.573 5.364-5.736 5.86l5.272 5.644c.433.465.619.93.619 1.364c0 1.209-.961 2.387-2.324 2.387c-.559 0-1.303-.217-1.799-.806l-6.883-8.341h-.062v6.728c0 1.551-.992 2.418-2.326 2.418s-2.326-.867-2.326-2.418V9.342zm4.651 7.348h3.193c1.705 0 2.884-1.023 2.884-2.759c0-1.767-1.18-2.729-2.884-2.729h-3.193v5.488z"/>
    </g>
    <path fill="#810CA8" d="M -6.202 23.758 C -6.202 25.393 -7.527 26.718 -9.162 26.718 L -29.877 26.718 C -31.512 26.718 -32.837 25.393 -32.837 23.758 L -32.837 3.043 C -32.837 1.407 -31.512 0.083 -29.877 0.083 L -9.162 0.083 C -7.527 0.083 -6.202 1.407 -6.202 3.043 L -6.202 23.758 Z" style="transform-box: fill-box; transform-origin: 50% 50%;"/>
  </g>
</svg>